<?xml version="1.0" encoding="iso-8859-1"?>
<!-- Generator: Adobe Illustrator 19.0.0, SVG Export Plug-In . SVG Version: 6.00 Build 0)  -->
<svg version="1.1" id="Capa_1" xmlns="http://www.w3.org/2000/svg" xmlns:xlink="http://www.w3.org/1999/xlink" x="0px" y="0px"
	 viewBox="0 0 512 512" style="enable-background:new 0 0 512 512;" xml:space="preserve">
<g>
	<path style="fill:#FFE100;" d="M401.067,503.467H110.933c-9.429,0-17.067-7.637-17.067-17.067V25.6
		c0-9.429,7.637-17.067,17.067-17.067h290.133c9.429,0,17.067,7.637,17.067,17.067v460.8
		C418.133,495.829,410.496,503.467,401.067,503.467"/>
	<path style="fill:#FFA800;" d="M401.067,8.533h-25.6c9.429,0,17.067,7.637,17.067,17.067v460.8c0,9.429-7.637,17.067-17.067,17.067
		h25.6c9.429,0,17.067-7.637,17.067-17.067V25.6C418.133,16.171,410.496,8.533,401.067,8.533"/>
	<path style="fill:#FFFFFF;" d="M110.933,8.533h25.6c-9.429,0-17.067,7.637-17.067,17.067v460.8c0,9.429,7.637,17.067,17.067,17.067
		h-25.6c-9.429,0-17.067-7.637-17.067-17.067V25.6C93.867,16.171,101.504,8.533,110.933,8.533"/>
	<path style="fill:#00DA6C;" d="M384,170.667c0,70.69-57.31,128-128,128s-128-57.31-128-128s57.31-128,128-128
		S384,99.977,384,170.667"/>
	<path style="fill:#00AD55;" d="M256,42.667c-4.318,0-8.593,0.23-12.8,0.649c64.683,6.426,115.2,60.979,115.2,127.351
		s-50.517,120.926-115.2,127.351c4.207,0.418,8.482,0.649,12.8,0.649c70.69,0,128-57.31,128-128S326.69,42.667,256,42.667"/>
	<polygon style="fill:#00DA6C;" points="153.6,503.467 358.4,503.467 358.4,469.333 153.6,469.333 	"/>
	<path style="fill:#63D3FD;" d="M309.883,245.903l-27.913-14.319c-2.85-1.459-4.634-4.395-4.634-7.595V220.2
		c0-1.638,0.973-3.089,2.449-3.823c13.184-6.554,21.717-18.236,25.557-32.631c6.153-1.911,10.394-7.595,10.394-14.353v-7.543
		c0-5.786-3.038-10.769-7.842-13.303c-3.328-28.382-22.093-39.868-52.241-39.868c-1.382,0-2.731,0.051-4.062,0.154
		c-10.274,0.802-20.736-1.084-29.286-6.844c-3.541-2.389-6.443-4.992-8.619-7.595c-0.887-1.058-2.876-0.435-2.697,1.101
		c0.256,2.244,0.623,4.813,1.135,7.595c1.425,7.731,0.068,15.616-3.055,22.827c-2.97,6.835-4.864,14.507-5.709,22.656
		c-4.779,2.543-7.091,7.518-7.091,13.278v7.543c0,6.758,3.541,12.442,9.685,14.353c3.849,14.396,12.996,26.078,26.257,32.631
		c1.476,0.734,2.458,2.185,2.458,3.831v3.43c0,3.251-1.852,6.221-4.77,7.654l-29.261,14.413
		c-7.953,4.343-12.902,12.681-12.902,21.743v6.912v3.081c0,0.213,0.034,0.469,0.068,0.725c19.55,12.945,42.991,20.497,68.198,20.497
		s48.64-7.552,68.19-20.497c0.043-0.256,0.077-0.512,0.077-0.725v-3.081v-6.306C324.27,258.668,318.271,250.101,309.883,245.903"/>
	<g>
		<path d="M256,51.2c-65.877,0-119.467,53.589-119.467,119.467S190.123,290.133,256,290.133s119.467-53.589,119.467-119.467
			S321.877,51.2,256,51.2 M256,307.2c-75.281,0-136.533-61.252-136.533-136.533S180.719,34.133,256,34.133
			s136.533,61.252,136.533,136.533S331.281,307.2,256,307.2"/>
		<path d="M110.933,17.067c-4.702,0-8.533,3.831-8.533,8.533v460.8c0,4.702,3.831,8.533,8.533,8.533h290.133
			c4.702,0,8.533-3.831,8.533-8.533V25.6c0-4.702-3.831-8.533-8.533-8.533H110.933z M401.067,512H110.933
			c-14.114,0-25.6-11.486-25.6-25.6V25.6c0-14.114,11.486-25.6,25.6-25.6h290.133c14.114,0,25.6,11.486,25.6,25.6v460.8
			C426.667,500.514,415.181,512,401.067,512L401.067,512z"/>
		<path d="M324.267,341.333H187.733c-4.71,0-8.533-3.823-8.533-8.533s3.823-8.533,8.533-8.533h136.533
			c4.71,0,8.533,3.823,8.533,8.533S328.977,341.333,324.267,341.333"/>
		<path d="M196.267,392.533h-51.2c-4.71,0-8.533-3.823-8.533-8.533s3.823-8.533,8.533-8.533h51.2c4.71,0,8.533,3.823,8.533,8.533
			S200.977,392.533,196.267,392.533"/>
		<path d="M213.333,426.667h-68.267c-4.71,0-8.533-3.823-8.533-8.533s3.823-8.533,8.533-8.533h68.267
			c4.71,0,8.533,3.823,8.533,8.533S218.044,426.667,213.333,426.667"/>
		<path d="M349.867,426.667h-51.2c-4.71,0-8.533-3.823-8.533-8.533s3.823-8.533,8.533-8.533h51.2c4.71,0,8.533,3.823,8.533,8.533
			S354.577,426.667,349.867,426.667"/>
		<path d="M366.933,392.533h-68.267c-4.71,0-8.533-3.823-8.533-8.533s3.823-8.533,8.533-8.533h68.267
			c4.71,0,8.533,3.823,8.533,8.533S371.644,392.533,366.933,392.533"/>
		<path d="M162.133,494.933h187.733v-17.067H162.133V494.933z M358.4,512H153.6c-4.71,0-8.533-3.823-8.533-8.533v-34.133
			c0-4.71,3.823-8.533,8.533-8.533h204.8c4.71,0,8.533,3.823,8.533,8.533v34.133C366.933,508.177,363.11,512,358.4,512L358.4,512z"
			/>
		<path d="M219.466,94.504v0.043V94.504L219.466,94.504z M324.196,278.167h0.085H324.196z M196.264,273.431
			c35.977,21.888,83.49,21.888,119.467,0v-5.376c0-5.794-3.883-11.622-9.668-14.515c-0.017-0.017-0.051-0.034-0.077-0.043
			l-27.913-14.319c-5.717-2.935-9.276-8.755-9.276-15.189V220.2c0-4.873,2.756-9.267,7.194-11.469
			c10.445-5.188,17.749-14.592,21.111-27.187c0.759-2.833,2.91-5.077,5.717-5.948c2.662-0.828,4.378-3.26,4.378-6.204v-7.543
			c0-2.517-1.229-4.668-3.285-5.751c-2.492-1.314-4.173-3.772-4.497-6.562c-2.62-22.349-16.119-32.324-43.759-32.324
			c-1.152,0-2.287,0.043-3.388,0.128c-11.554,0.896-22.204-1.186-31.087-6.067c-0.265,5.973-1.707,12.075-4.284,18.039
			c-2.577,5.948-4.275,12.723-5.052,20.139c-0.299,2.833-1.971,5.316-4.471,6.647c-2.133,1.135-2.577,3.755-2.577,5.751v7.543
			c0,1.519,0.358,5.171,3.686,6.204c2.807,0.87,4.958,3.115,5.717,5.948c3.26,12.194,10.999,21.854,21.794,27.187
			c4.446,2.193,7.202,6.588,7.202,11.477v3.43c0,6.46-3.738,12.467-9.532,15.317l-29.261,14.404
			c-4.898,2.688-8.141,8.141-8.141,14.089V273.431z M255.997,307.197c-26.035,0-51.251-7.578-72.909-21.914
			c-2.022-1.34-3.379-3.49-3.729-5.888c-0.06-0.41-0.162-1.545-0.162-1.954v-9.993c0-12.194,6.647-23.39,17.348-29.235
			l29.585-14.575v-0.811c-12.885-7.083-22.4-18.603-27.221-32.905c-6.921-4.019-11.179-11.622-11.179-20.531v-7.543
			c0-7.458,2.731-13.824,7.629-18.074c1.109-7.663,3.081-14.788,5.879-21.257c2.662-6.144,3.524-12.322,2.492-17.877
			c-0.555-3.012-0.947-5.769-1.22-8.192c-0.512-4.386,1.886-8.533,5.973-10.291c4.087-1.758,8.926-0.614,11.75,2.773
			c1.715,2.048,4.079,4.122,6.844,5.973c7.987,5.393,17.374,5.914,23.859,5.419c1.536-0.119,3.106-0.179,4.719-0.179
			c35.046,0,55.253,14.626,60.151,43.477c5.308,4.395,8.457,11.025,8.457,18.227v7.543c0,8.721-4.617,16.478-11.87,20.557
			c-4.83,14.618-13.918,25.89-26.53,32.87v1.169l27.887,14.31c11.571,5.811,19.046,17.485,19.046,29.756v9.387
			c0,0.41-0.094,1.545-0.154,1.954c-0.35,2.398-1.707,4.548-3.738,5.888C307.249,299.62,282.041,307.197,255.997,307.197
			L255.997,307.197z"/>
	</g>
</g>
<g>
</g>
<g>
</g>
<g>
</g>
<g>
</g>
<g>
</g>
<g>
</g>
<g>
</g>
<g>
</g>
<g>
</g>
<g>
</g>
<g>
</g>
<g>
</g>
<g>
</g>
<g>
</g>
<g>
</g>
</svg>
