<svg id="Layer_5" enable-background="new 0 0 64 64" height="512" viewBox="0 0 64 64" width="512" xmlns="http://www.w3.org/2000/svg"><g><g><g><circle cx="32" cy="32" fill="#69d6f4" r="22"/></g><g><path d="m10 32c0 1.57.16 3.1.48 4.57-2.66 2.81-4.25 5.03-4.46 7.05-1.76-.44-3.03-1.29-3.63-2.55l-.16-.37-.05-.01c.07-.32.18-.64.32-.94 1.26-2.64 3.92-5.6 7.51-8.43-.01.23-.01.45-.01.68z" fill="#fc6e51"/></g><g><path d="m2 42.13c0-.49.05-.97.18-1.44l.05.01.16.37c.6 1.26 1.87 2.11 3.63 2.55 1.93.5 4.45.5 7.32.04 2.89-.47 6.14-1.4 9.5-2.8 1.19-.49 2.39-1.04 3.6-1.64 4.27-2.14 7.96-4.67 10.77-7.22.5-.46.98-.91 1.42-1.37l-2.63-2.63 5.73-1.14v-.01l4.27-.85-1.2 6-.8 4-2.02-2.02-.5-.5c-3.15 3.3-7.76 6.67-13.25 9.44-.05.03-.11.05-.16.08-1.4.7-2.8 1.33-4.18 1.89-2.65 1.07-5.25 1.88-7.68 2.42-3.66.83-6.93 1.03-9.45.6-1.38-.24-2.58-.98-3.42-2.01-.84-1.04-1.34-2.36-1.34-3.77z" fill="#ff826e"/></g><g><path d="m52 2c5.52 0 10 4.48 10 10s-4.48 10-10 10c-.14 0-.28 0-.41-.01-1.42-.06-2.75-.41-3.95-.99-3.23-1.57-5.48-4.81-5.63-8.6-.01-.13-.01-.26-.01-.4 0-5.52 4.48-10 10-10z" fill="#fcd770"/></g><g><path d="m18 22v2c0 1.1-.9 2-2 2h-5.17-6.83c-1.1 0-2-.9-2-2v-2z" fill="#969faa"/></g><g><path d="m18 4v2h-16v-2c0-1.1.9-2 2-2h12c1.1 0 2 .9 2 2z" fill="#969faa"/></g><g><path d="m62 58v2c0 1.1-.9 2-2 2h-12c-1.1 0-2-.9-2-2v-2z" fill="#969faa"/></g><g><path d="m62 40v2h-16v-2c0-1.1.9-2 2-2h5.17 6.83c1.1 0 2 .9 2 2z" fill="#969faa"/></g><g><path d="m18 22h-16v-16h16v9.03 5.97z" fill="#4fc1e9"/></g><g><path d="m62 42v16h-16v-9.03-5.97-1z" fill="#4fc1e9"/></g><g><path d="m6 10h8v8h-8z" fill="#b4dd7f"/></g><g><path d="m50 46h8v8h-8z" fill="#b4dd7f"/></g></g><g><path d="m51 15c-.552 0-1-.448-1-1h-2c0 1.654 1.346 3 3 3v2h2v-2h3v-3c0-1.654-1.346-3-3-3h-2c-.552 0-1-.448-1-1v-1h3c.552 0 1 .448 1 1h2c0-1.654-1.346-3-3-3v-2h-2v2h-3v3c0 1.654 1.346 3 3 3h2c.552 0 1 .448 1 1v1z"/><path d="m60 37h-5.553c.362-1.636.553-3.311.553-5 0-3.162-.628-6.202-1.858-9.06 5.531-.573 9.858-5.26 9.858-10.94 0-6.065-4.935-11-11-11-5.679 0-10.366 4.327-10.94 9.857-2.859-1.23-5.898-1.857-9.06-1.857-4.648 0-9.191 1.42-13 4.028v-9.028c0-1.654-1.346-3-3-3h-12c-1.654 0-3 1.346-3 3v20c0 1.654 1.346 3 3 3h5.554c-.278 1.254-.448 2.532-.513 3.821-3.586 2.892-6.162 5.824-7.444 8.5-.396.828-.597 1.773-.597 2.805 0 3.359 2.353 6.206 5.593 6.768.927.16 1.936.238 3.014.238 1.909 0 4.035-.256 6.282-.727 4.325 4.253 10.022 6.595 16.111 6.595 4.647 0 9.191-1.42 13-4.028v9.028c0 1.654 1.346 3 3 3h12c1.654 0 3-1.346 3-3v-20c0-1.654-1.346-3-3-3zm1 3v1h-14v-1c0-.552.448-1 1-1h12c.552 0 1 .448 1 1zm0 3v14h-14v-14zm-13-6c-1.654 0-3 1.346-3 3v2h-3.076c.41-1.8.718-3.728.894-5.768l1.796 1.796 1.006-5.028h7.346c-.064 1.354-.258 2.692-.577 4zm-16 16c-2.592 0-5.121-2.811-6.856-7.567 1.047-.444 2.095-.917 3.139-1.433h11.022c-1.666 5.393-4.379 9-7.305 9zm0-11c3.38-1.98 6.415-4.214 8.865-6.523-.174 2.317-.523 4.512-1.01 6.523zm5.214-11.372c-.129.125-.272.248-.405.372h-13.787c.069-3.224.457-6.287 1.105-9h15.756c.303 1.274.545 2.636.73 4.058l-6.642 1.328zm-25.488 12.236c-1.684.184-3.208.179-4.512-.022.366-1.147 1.245-2.496 2.76-4.231.441 1.47 1.023 2.895 1.752 4.253zm2.126-.318c-1.693-2.906-2.657-6.174-2.817-9.546h9.988c.05 2.496.283 4.919.698 7.234-2.741 1.081-5.42 1.86-7.869 2.312zm9.761-3.106c-.347-2.066-.544-4.221-.59-6.44h11.444c-2.464 1.938-5.357 3.768-8.472 5.326-.792.397-1.588.764-2.382 1.114zm8.387-28.44c2.937 0 5.668 3.537 7.335 9h-14.66c1.648-5.395 4.342-9 7.325-9zm12.474 9h-3.062c-1.031-3.567-2.506-6.446-4.26-8.362 1.339.338 2.641.813 3.902 1.419.261 2.729 1.528 5.163 3.42 6.943zm-1.897 5.665c-.17-1.276-.39-2.5-.654-3.665h5.521c1.086.497 2.261.828 3.5.947 1.215 2.535 1.897 5.236 2.027 8.053h-6.951l1.255-6.274zm9.423-22.665c4.963 0 9 4.037 9 9s-4.037 9-9 9-9-4.037-9-9 4.037-9 9-9zm-25.218 8.667c-1.747 1.928-3.201 4.807-4.214 8.333h-3.568v-4.474c2.305-1.821 4.959-3.134 7.782-3.859zm-9.782 9.333h-14v-14h14zm-13-18h12c.552 0 1 .448 1 1v1h-14v-1c0-.552.448-1 1-1zm-1 21v-1h14v1c0 .552-.448 1-1 1h-12c-.552 0-1-.448-1-1zm13 3c1.654 0 3-1.346 3-3v-2h3.057c-.616 2.729-.982 5.769-1.045 9h-9.978c.064-1.354.258-2.691.577-4zm-12.599 13.185c.989-2.065 2.972-4.423 5.648-6.762.059.955.183 1.9.358 2.835-2.33 2.505-3.611 4.377-4.125 6.062-.966-.4-1.646-.954-1.976-1.64l-.057-.133c.046-.125.096-.245.152-.362zm3.534 6.738c-1.837-.318-3.269-1.69-3.755-3.459.521.364 1.131.666 1.828.905 4.828 1.649 13.419-.017 21.882-4.254 4.919-2.462 9.343-5.583 12.457-8.788l.688-.707-2.006-2.006 6.697-1.34-1.34 6.697-1.928-1.928-.707.742c-3.186 3.349-7.792 6.63-12.971 9.24-7.633 3.846-15.82 5.769-20.845 4.898zm16.357-.733c.948 2.578 2.124 4.645 3.457 6.127-3.135-.803-6.038-2.314-8.516-4.476 1.649-.443 3.344-.994 5.059-1.651zm13.873 6.154c1.752-1.925 3.221-4.804 4.246-8.344h3.589v4.473c-2.32 1.832-4.993 3.149-7.835 3.871zm22.835 8.656h-12c-.552 0-1-.448-1-1v-1h14v1c0 .552-.448 1-1 1z"/><path d="m15 19v-10h-10v10zm-8-8h6v6h-6z"/><path d="m59 55v-10h-10v10zm-8-8h6v6h-6z"/></g></g></svg>