<?xml version="1.0" encoding="iso-8859-1"?>
<!-- Generator: Adobe Illustrator 19.0.0, SVG Export Plug-In . SVG Version: 6.00 Build 0)  -->
<svg version="1.1" id="Capa_1" xmlns="http://www.w3.org/2000/svg" xmlns:xlink="http://www.w3.org/1999/xlink" x="0px" y="0px"
	 viewBox="0 0 512.001 512.001" style="enable-background:new 0 0 512.001 512.001;" xml:space="preserve">
<path style="fill:#C6BDD6;" d="M412.965,56.101c-6.107-5.62-15.611-5.224-21.227,0.883L256,204.506L120.263,56.984
	c-5.616-6.107-15.122-6.5-21.227-0.883c-6.106,5.618-6.501,15.122-0.883,21.227l137.952,149.928h39.791L413.847,77.327
	C419.466,71.223,419.07,61.719,412.965,56.101z"/>
<path style="fill:#F5F2FC;" d="M256,204.506L120.263,56.984c-5.616-6.107-15.122-6.5-21.227-0.883
	c-6.106,5.618-6.501,15.122-0.883,21.227l137.952,149.928H256L256,204.506L256,204.506z"/>
<path style="fill:#C6BDD6;" d="M413.848,434.674L283.957,293.506h-55.914L98.153,434.674c-5.618,6.105-5.223,15.609,0.883,21.227
	c2.886,2.656,6.531,3.968,10.168,3.968c4.055,0,8.097-1.632,11.059-4.851L256,307.495l135.737,147.522
	c2.962,3.22,7.004,4.851,11.059,4.851c3.636,0,7.282-1.312,10.168-3.968C419.07,450.283,419.466,440.779,413.848,434.674z"/>
<path style="fill:#F5F2FC;" d="M256,293.506h-27.957L98.153,434.674c-5.618,6.105-5.223,15.609,0.883,21.227
	c2.886,2.656,6.531,3.968,10.168,3.968c4.055,0,8.097-1.632,11.059-4.851L256,307.495L256,293.506L256,293.506z"/>
<path style="fill:#C6BDD6;" d="M460.912,271.024H51.089c-8.297,0-15.023-6.726-15.023-15.023c0-8.297,6.726-15.023,15.023-15.023
	h409.822c8.297,0,15.023,6.726,15.023,15.023C475.935,264.297,469.208,271.024,460.912,271.024z"/>
<path style="fill:#F5F2FC;" d="M256.001,240.977H51.088c-8.297,0-15.023,6.726-15.023,15.023c0,8.297,6.726,15.023,15.023,15.023
	H256v-30.046H256.001z"/>
<path style="fill:#0C84BF;" d="M282.69,239.521h-53.38c-32.221,0-58.253,26.642-58.253,58.863v76.031
	c0,19.732,15.87,35.869,35.603,35.869h98.681c19.732,0,35.603-16.137,35.603-35.869v-76.031
	C340.943,266.163,314.911,239.521,282.69,239.521z"/>
<path style="fill:#35ABF0;" d="M256.001,239.521H229.31c-32.221,0-58.253,26.642-58.253,58.863v76.031
	c0,19.732,15.87,35.869,35.603,35.869H256L256.001,239.521L256.001,239.521z"/>
<path style="fill:#0C84BF;" d="M256,113.476c-34.751,0-63.023,28.271-63.023,63.023S221.25,239.521,256,239.521
	s63.023-28.271,63.023-63.023S290.751,113.476,256,113.476z"/>
<path style="fill:#35ABF0;" d="M256,113.476c-34.751,0-63.023,28.271-63.023,63.023S221.25,239.521,256,239.521V113.476z"/>
<path style="fill:#3594C7;" d="M109.208,16.077c-28.165,0-51.078,22.913-51.078,51.077s22.913,51.078,51.078,51.078
	c28.164,0,51.078-22.914,51.078-51.078S137.372,16.077,109.208,16.077z"/>
<path style="fill:#16DCFA;" d="M109.208,16.077c-28.165,0-51.078,22.913-51.078,51.077s22.913,51.078,51.078,51.078V16.077z"/>
<path style="fill:#3594C7;" d="M402.793,16.077c-28.165,0-51.078,22.913-51.078,51.077s22.913,51.078,51.078,51.078
	c28.164,0,51.078-22.914,51.078-51.078S430.958,16.077,402.793,16.077z"/>
<path style="fill:#16DCFA;" d="M402.793,16.077c-28.165,0-51.078,22.913-51.078,51.077s22.913,51.078,51.078,51.078V16.077z"/>
<path style="fill:#3594C7;" d="M109.208,393.768c-28.165,0-51.078,22.913-51.078,51.077s22.913,51.078,51.078,51.078
	c28.164,0,51.078-22.914,51.078-51.078S137.372,393.768,109.208,393.768z"/>
<path style="fill:#16DCFA;" d="M109.208,393.768c-28.165,0-51.078,22.913-51.078,51.077s22.913,51.078,51.078,51.078V393.768z"/>
<path style="fill:#3594C7;" d="M402.793,393.768c-28.165,0-51.078,22.913-51.078,51.077s22.913,51.078,51.078,51.078
	c28.164,0,51.078-22.914,51.078-51.078S430.958,393.768,402.793,393.768z"/>
<path style="fill:#16DCFA;" d="M402.793,393.768c-28.165,0-51.078,22.913-51.078,51.077s22.913,51.078,51.078,51.078V393.768z"/>
<path style="fill:#3594C7;" d="M460.923,204.643c-28.165,0-51.078,22.913-51.078,51.077s22.913,51.078,51.078,51.078
	c28.164,0,51.078-22.914,51.078-51.078S489.087,204.643,460.923,204.643z"/>
<path style="fill:#16DCFA;" d="M460.923,204.643c-28.165,0-51.078,22.913-51.078,51.077s22.913,51.078,51.078,51.078V204.643z"/>
<path style="fill:#3594C7;" d="M51.078,204.643C22.913,204.643,0,227.556,0,255.72s22.913,51.078,51.078,51.078
	c28.164,0,51.078-22.914,51.078-51.078S79.243,204.643,51.078,204.643z"/>
<path style="fill:#16DCFA;" d="M51.078,204.643C22.913,204.643,0,227.556,0,255.72s22.913,51.078,51.078,51.078V204.643z"/>
<g>
</g>
<g>
</g>
<g>
</g>
<g>
</g>
<g>
</g>
<g>
</g>
<g>
</g>
<g>
</g>
<g>
</g>
<g>
</g>
<g>
</g>
<g>
</g>
<g>
</g>
<g>
</g>
<g>
</g>
</svg>
