<svg id="Layer_35" enable-background="new 0 0 64 64" height="512" viewBox="0 0 64 64" width="512" xmlns="http://www.w3.org/2000/svg"><path d="m50.15 2c-3.29 0-6.43 1.35-8.7 3.74l-15.45 16.26-13.35 1.82c-3.66.5-6.62 2.93-7.93 6.18h.01l-.73 12h13.03c2.47-6.99 9.13-12 16.97-12 9.94 0 18 8.06 18 18h10v-46z" fill="#ffeaa7"/><path d="m62 26v16h-7l-.36-1.45c-2.14-8.55-9.82-14.55-18.64-14.55v-4h4 22z" fill="#fcd770"/><path d="m37.83 16 7.39-8.05c1.13-1.24 2.74-1.95 4.42-1.95h12.36v16h-22c1.1 0 2.1-.45 2.83-1.17.72-.73 1.17-1.73 1.17-2.83s-.9-2-2-2h-4c-.06 0-.12 0-.17.01z" fill="#69d6f4"/><path d="m42 16c1.1 0 2 .9 2 2s-.45 2.1-1.17 2.83c-.73.72-1.73 1.17-2.83 1.17h-4v-4c0-1.04.81-1.9 1.83-1.99.05-.01.11-.01.17-.01z" fill="#aab2bd"/><path d="m13.56 33.34.44 2.66h-10v-2.27c0-1.31.25-2.58.72-3.73h.01 4.88c1.96 0 3.63 1.41 3.95 3.34z" fill="#ff826e"/><path d="m4 42h13.03c-.67 1.88-1.03 3.9-1.03 6h-12c-1.1 0-2-.9-2-2v-2c0-1.1.9-2 2-2z" fill="#aab2bd"/><path d="m52 48h-4c0-7.73-6.27-14-14-14s-14 6.27-14 14h-4c0-2.1.36-4.12 1.03-6 2.47-6.99 9.13-12 16.97-12 9.94 0 18 8.06 18 18z" fill="#ccd1d9"/><path d="m34 34c7.73 0 14 6.27 14 14s-6.27 14-14 14-14-6.27-14-14 6.27-14 14-14z" fill="#838f9b"/><circle cx="34" cy="48" fill="#e6e9ed" r="10"/><circle cx="34" cy="48" fill="#fcd770" r="2"/><path d="m34 37c-6.065 0-11 4.935-11 11s4.935 11 11 11 11-4.935 11-11-4.935-11-11-11zm8.941 10h-6.125c-.302-.847-.969-1.514-1.816-1.816v-6.125c4.165.463 7.478 3.776 7.941 7.941zm-8.941 2c-.552 0-1-.448-1-1s.448-1 1-1 1 .448 1 1-.448 1-1 1zm-1-9.941v6.125c-.847.302-1.514.969-1.816 1.816h-6.125c.463-4.165 3.776-7.478 7.941-7.941zm-7.941 9.941h6.125c.302.847.969 1.514 1.816 1.816v6.125c-4.165-.463-7.478-3.776-7.941-7.941zm9.941 7.941v-6.125c.847-.302 1.514-.969 1.816-1.816h6.125c-.463 4.165-3.776 7.478-7.941 7.941z"/><path d="m63 1h-12.849c-3.548 0-6.982 1.475-9.424 4.046l-15.21 16.011-13.003 1.773c-5.424.739-9.514 5.424-9.514 10.899v7.456c-1.161.413-2 1.513-2 2.815v2c0 1.654 1.346 3 3 3h15.051c.518 7.805 7.015 14 14.949 14s14.431-6.195 14.949-14h14.051zm-57.564 30h4.175c1.473 0 2.717 1.054 2.959 2.508l.249 1.492h-7.819v-1.271c0-.948.158-1.864.436-2.729zm-2.436 15v-2c0-.552.448-1 1-1h11.69c-.352 1.285-.567 2.622-.639 4h-11.051c-.552 0-1-.448-1-1zm31-13c-7.934 0-14.431 6.195-14.949 14h-2c.522-8.908 7.913-16 16.949-16s16.427 7.092 16.949 16h-2c-.518-7.805-7.015-14-14.949-14zm0 28c-7.168 0-13-5.832-13-13s5.832-13 13-13 13 5.832 13 13-5.832 13-13 13zm18.949-14c-.525-10.011-8.81-18-18.949-18-8.003 0-14.852 4.981-17.647 12h-11.353v-4h10.181l-.638-3.821c-.403-2.422-2.478-4.179-4.932-4.179h-3.253c1.378-2.217 3.693-3.816 6.425-4.188l13.7-1.868 15.694-16.52c2.066-2.176 4.972-3.424 7.974-3.424h10.849v2h-11.36c-1.958 0-3.839.828-5.16 2.27l-7.166 7.817c-1.324.312-2.314 1.496-2.314 2.913v9h1c8.372 0 15.638 5.672 17.668 13.795l.552 2.205h6.78v4zm8.051-20v14h-5.22l-.173-.69c-2.17-8.689-9.742-14.852-18.607-15.286v-2.024h3 21v2h-4v2zm-23-10h4c.552 0 1 .449 1 1 0 1.654-1.346 3-3 3h-3v-3c0-.551.448-1 1-1zm5.974 4c.635-.838 1.026-1.87 1.026-3 0-1.654-1.346-3-3-3h-1.893l5.848-6.379c.943-1.03 2.286-1.621 3.685-1.621h11.36v14z"/></svg>